<svg xmlns="http://www.w3.org/2000/svg" version="1.1" xmlns:xlink="http://www.w3.org/1999/xlink" xmlns:svgjs="http://svgjs.dev/svgjs" width="100%" height="100%" viewBox="0 0 1000 600"><rect width="1000" height="600" x="0" y="0" fill="#191919"/><g><rect width="333.3333333333333" height="333.3333333333333" rx="13.333333333333334" ry="13.333333333333334" y="209.94247561353006" fill="#b88746" transform="matrix(0.6658845177929146,0,0,0.6658845177929146,0,49.221803787817095)" x="187.7203369140625"/><path d="M252.39485389390256 448.1897362737638L252.39485389390256 450.7618565236114Q252.39485389390256 451.6091431941495 251.54756722336452 451.6091431941495L251.54756722336452 451.6091431941495L197.20017935599503 451.6091431941495Q196.35289268545696 451.6091431941495 196.35289268545696 450.7618565236114L196.35289268545696 450.7618565236114L196.35289268545696 448.1897362737638Q196.35289268545696 447.34244960322576 197.71460340596457 447.34244960322576L197.71460340596457 447.34244960322576Q212.3000382345125 446.7069846003222 217.41401849597432 431.81894738943924L217.41401849597432 431.81894738943924L260.80720012281614 306.1784382439391Q260.9282410757501 305.9666165763046 260.9282410757501 305.6640141939696L260.9282410757501 305.6640141939696L259.7480917846435 302.15382655888334Q259.7480917846435 301.6091422706803 260.17173511991257 301.6091422706803L260.17173511991257 301.6091422706803L281.44468259806445 301.6091422706803Q281.65650426569897 301.69992298538085 282.01962712450097 301.82096393831483Q282.4130102215365 301.94200489124887 282.62483188917105 302.4564289412184L282.62483188917105 302.4564289412184L327.62180614238844 428.73240308962204Q329.10455781583005 431.6071257218047 330.0123649628351 433.9371640657844Q330.9201721098401 436.2974626479975 332.1003214009467 438.2038576567081L332.1003214009467 438.2038576567081Q334.6421814125609 442.5613319623324 340.4824073916268 444.92163054454556L340.4824073916268 444.92163054454556Q345.38456598545406 447.34244960322576 349.43943790874334 447.34244960322576L349.43943790874334 447.34244960322576Q350.2867245792814 447.34244960322576 350.2867245792814 448.3107772266978L350.2867245792814 448.3107772266978L350.2867245792814 450.7618565236114Q350.2867245792814 451.6091431941495 349.43943790874334 451.6091431941495L349.43943790874334 451.6091431941495L284.3194052302471 451.6091431941495Q283.4721185597091 451.6091431941495 283.4721185597091 450.7618565236114L283.4721185597091 450.7618565236114L283.4721185597091 448.1897362737638Q283.4721185597091 447.34244960322576 287.40594953006433 447.13062793559124Q291.3397805004196 446.9188062679567 293.88164051203375 446.7069846003222L293.88164051203375 446.7069846003222Q308.6788970082162 445.1334522121801 308.6788970082162 436.7211059832665L308.6788970082162 436.7211059832665Q308.6788970082162 436.085640980363 308.4670753405817 435.238354309825L308.4670753405817 435.238354309825L292.39888883859214 389.908517436039Q292.30810812389166 389.69669576840454 291.97524550332315 388.940189812567L291.97524550332315 388.940189812567Q290.70431549751606 385.33922146278024 287.4967302447649 385.33922146278024L287.4967302447649 385.33922146278024L249.7319529293544 385.33922146278024Q246.55462791483671 385.33922146278024 244.7390136208266 388.84940909786644L244.7390136208266 388.84940909786644Q244.4364112384916 389.5756548154705 244.4364112384916 389.69669576840454L244.4364112384916 389.69669576840454L228.45900545120253 436.38824336269806L228.45900545120253 437.3565709861701Q228.45900545120253 440.1102526654188 231.3337280833852 442.3495102946979L231.3337280833852 442.3495102946979Q237.83967930358816 447.34244960322576 248.79388554411585 447.34244960322576L248.79388554411585 447.34244960322576L251.54756722336452 447.34244960322576Q252.39485389390256 447.34244960322576 252.39485389390256 448.1897362737638L252.39485389390256 448.1897362737638ZM252.5158948468366 373.53772855171445L283.89576189497814 373.53772855171445Q285.80215690368874 373.53772855171445 285.80215690368874 371.93393592533886L285.80215690368874 371.93393592533886Q285.80215690368874 371.0866492548008 285.3785135684197 370.02754091662825L285.3785135684197 370.02754091662825L269.5221487340647 326.39227738391844Q268.4630403958921 323.51755475173576 267.9486163459226 323.51755475173576L267.9486163459226 323.51755475173576Q267.40393205771954 323.51755475173576 266.223782766613 326.5133183368524L266.223782766613 326.5133183368524L251.33574555573 370.02754091662825Q250.912102220461 371.0866492548008 250.912102220461 372.29705878414086Q250.912102220461 373.53772855171445 252.5158948468366 373.53772855171445L252.5158948468366 373.53772855171445ZM419.21954727519886 448.94624222960135L419.21954727519886 450.7618565236114Q419.21954727519886 451.6091431941495 418.37226060466077 451.6091431941495L418.37226060466077 451.6091431941495L355.8243481760123 451.6091431941495Q355.0678422201747 451.6091431941495 355.0678422201747 450.7618565236114L355.0678422201747 450.7618565236114L355.0678422201747 448.73442056196683Q355.0678422201747 447.8871338914288 359.5766177169665 447.76609293849475Q364.11565345199176 447.67531222379426 370.65186491042823 444.4374667328095Q377.1880763688646 441.16936100359135 377.1880763688646 434.5726290686879L377.1880763688646 434.5726290686879L377.1880763688646 318.61539615790844Q377.1880763688646 306.6020815792082 355.91512889071277 305.33115157340103L355.91512889071277 305.33115157340103Q355.0678422201747 305.33115157340103 355.0678422201747 304.48386490286305L355.0678422201747 304.48386490286305L355.0678422201747 302.4564289412184Q355.0678422201747 301.6091422706803 355.8243481760123 301.6091422706803L355.8243481760123 301.6091422706803L418.37226060466077 301.6091422706803Q419.21954727519886 301.6091422706803 419.21954727519886 302.4564289412184L419.21954727519886 302.4564289412184L419.21954727519886 304.48386490286305Q419.21954727519886 305.11932990576656 414.8015524931076 305.11932990576656Q410.38355771101624 305.11932990576656 405.0577557819199 307.66118991738074L405.0577557819199 307.66118991738074Q397.94659979704693 311.08059683776645 397.94659979704693 318.8272178255429L397.94659979704693 318.8272178255429L397.94659979704693 365.76084732570445Q397.94659979704693 375.1112609398566 399.7319538528236 375.1112609398566L399.7319538528236 375.1112609398566Q404.3315100643159 375.1112609398566 411.3518853344884 369.3315554372577Q418.37226060466077 363.52158969642534 423.7888432484576 357.3485010967909Q429.2054258922545 351.1754124971565 434.68252901251833 342.7328060300095Q440.1596321327822 334.25993932462893 442.30810904736086 331.1733950248117L442.30810904736086 331.1733950248117Q450.26655170277184 319.91658640194896 450.26655170277184 314.22766161405065Q450.26655170277184 308.5084765879188 445.39465334717806 306.6020815792082L445.39465334717806 306.6020815792082Q442.1870680944269 305.33115157340103 436.22580116242693 305.33115157340103L436.22580116242693 305.33115157340103L435.16669282425437 305.33115157340103Q434.3194061537163 305.33115157340103 434.3194061537163 304.48386490286305L434.3194061537163 304.48386490286305L434.3194061537163 302.4564289412184Q434.3194061537163 301.6091422706803 435.16669282425437 301.6091422706803L435.16669282425437 301.6091422706803L496.6554969147304 301.6091422706803Q497.5027835852684 301.6091422706803 497.5027835852684 302.4564289412184L497.5027835852684 302.4564289412184L497.5027835852684 304.48386490286305Q497.5027835852684 305.7547949086701 496.23185357946136 305.7547949086701L496.23185357946136 305.7547949086701Q482.6147463743854 306.1784382439391 476.3508770600505 309.3255030202233Q470.0567475074821 312.4725677965075 466.2742177282944 316.19457709922824Q462.5219481873402 319.91658640194896 458.04343292878184 327.451385722091L458.04343292878184 327.451385722091Q444.426325723706 350.539947494253 430.9302594715641 364.3688763669634L430.9302594715641 364.3688763669634Q425.18081420719875 370.2393625842627 424.9689925395642 371.60107330477035L424.9689925395642 371.60107330477035Q425.48341658953376 372.6601816429429 433.68394115081276 380.10420024838436L433.68394115081276 380.10420024838436Q454.10960195842654 398.8352877149221 476.5626987276851 430.85061976596717L476.5626987276851 430.85061976596717Q484.9447847183651 443.1060162505355 498.56189192344095 445.98073888271813L498.56189192344095 445.98073888271813Q507.6097031552581 448.0989555590633 510.0002619757047 448.0989555590633Q512.4210810343849 448.0989555590633 512.4210810343849 448.94624222960135L512.4210810343849 448.94624222960135L512.4210810343849 450.7618565236114Q512.4210810343849 451.6091431941495 511.5435341256133 451.6091431941495L511.5435341256133 451.6091431941495L441.9752464267923 451.6091431941495Q441.1279597562542 451.6091431941495 441.1279597562542 450.7618565236114L441.1279597562542 450.7618565236114L441.1279597562542 448.73442056196683Q441.1279597562542 447.8871338914288 444.75918834427443 447.5542712708602L444.75918834427443 447.5542712708602Q456.7725029229748 446.49516293268766 456.7725029229748 440.53389600068783L456.7725029229748 440.53389600068783Q456.0159969671372 434.5726290686879 435.3785144918889 411.0906841994904L435.3785144918889 411.0906841994904Q431.6565051891681 406.91477132326713 427.6318935041124 401.8310513000388L427.6318935041124 401.8310513000388Q411.44266604918886 381.91981454239453 401.03314409686413 381.91981454239453L401.03314409686413 381.91981454239453L399.00570813521955 381.91981454239453Q397.94659979704693 381.91981454239453 397.94659979704693 383.4025662158361L397.94659979704693 383.4025662158361L397.94659979704693 433.2109183481803Q397.94659979704693 448.0989555590633 418.37226060466077 448.0989555590633L418.37226060466077 448.0989555590633Q419.21954727519886 448.0989555590633 419.21954727519886 448.94624222960135L419.21954727519886 448.94624222960135Z " fill="#191919" transform="matrix(0.6658845177929146,0,0,0.6658845177929146,0,49.221803787817095)"/><path d="M638.4802236193268 376.6091407423076L673.645244183841 376.6091407423076Q685.6901568880867 376.6091407423076 685.6901568880867 364.8449357493896L685.6901568880867 364.8449357493896Q685.6901568880867 364.1304070296462 686.4046856078301 364.1304070296462L686.4046856078301 364.1304070296462L688.5482717670602 364.1304070296462Q689.2628004868036 364.1304070296462 689.2628004868036 364.8449357493896L689.2628004868036 364.8449357493896L689.2628004868036 398.22363451454527Q689.2628004868036 398.9381632342887 688.5482717670602 398.9381632342887L688.5482717670602 398.9381632342887L686.4046856078301 398.9381632342887Q685.6901568880867 398.9381632342887 685.6901568880867 398.22363451454527L685.6901568880867 398.22363451454527Q685.6901568880867 389.98103535464827 681.0202013269067 386.8422127643469L681.0202013269067 386.8422127643469Q678.4938319249568 385.1324476135324 673.8238763637768 385.1324476135324L673.8238763637768 385.1324476135324L638.4802236193268 385.1324476135324Q636.3366374600967 385.1324476135324 636.3366374600967 387.55674148409037L636.3366374600967 387.55674148409037L636.3366374600967 433.66936279038725Q636.3366374600967 439.76837579105404 643.6350379546184 442.67752843572356Q650.9589573319881 445.5866810803931 652.8983924284346 445.5866810803931Q654.8123086420329 445.5866810803931 654.8123086420329 446.30120980013646L654.8123086420329 446.30120980013646L654.8123086420329 448.47031484221463Q654.8123086420329 449.184843561958 654.0977799222895 449.184843561958L654.0977799222895 449.184843561958L605.1015248541711 449.184843561958Q604.3869961344277 449.184843561958 604.3869961344277 448.47031484221463L604.3869961344277 448.47031484221463L604.3869961344277 446.30120980013646Q604.3869961344277 445.5866810803931 605.9181291053064 445.5866810803931Q607.449262076185 445.5866810803931 610.6646413150304 444.1576236409063Q613.9055394367235 442.72856620141954 616.3808710729775 439.8959702052939Q618.8306838263834 437.06337420916833 618.8306838263834 433.03139071918775L618.8306838263834 433.03139071918775L618.8306838263834 336.13619254541396Q618.8306838263834 330.31788725607487 612.6551141771727 327.791517854125L612.6551141771727 327.791517854125Q609.0569516956077 326.2859037660943 605.5608647454346 326.2859037660943L605.5608647454346 326.2859037660943L605.203600385563 326.2859037660943Q604.4890716658197 326.2859037660943 604.4890716658197 325.54585616350295L604.4890716658197 325.54585616350295L604.4890716658197 323.40227000427274Q604.4890716658197 322.68774128452935 605.203600385563 322.68774128452935L605.203600385563 322.68774128452935L689.7986970266112 322.68774128452935Q690.8704901062263 322.8663734644652 691.4319055288818 323.17260005864097Q691.9678020686894 323.5043455356647 691.9678020686894 324.7547707952156L691.9678020686894 324.7547707952156L691.9678020686894 346.4713400988452Q691.9678020686894 347.54313317846027 691.6360565916657 347.79832200694005Q691.3298299974899 348.07902971826786 690.5132257463547 348.07902971826786L690.5132257463547 348.07902971826786L689.4414326667395 348.07902971826786Q689.2628004868036 347.9769541868759 688.2420451728846 343.17940421145596Q687.1957709761174 338.381854236036 685.0521848168872 335.77892818554227L685.0521848168872 335.77892818554227Q681.3774656867784 331.8490202269536 676.7075101255983 331.38968033569L676.7075101255983 331.38968033569Q674.8191127948479 331.21104815575416 672.1396300958102 331.21104815575416L672.1396300958102 331.21104815575416L638.122959259455 331.21104815575416Q636.3366374600967 331.21104815575416 636.3366374600967 332.9973699551126L636.3366374600967 332.9973699551126L636.3366374600967 374.5421112316214Q636.3366374600967 376.6091407423076 638.4802236193268 376.6091407423076L638.4802236193268 376.6091407423076ZM762.1957676663258 384.8517399022046L762.1957676663258 384.8517399022046Q761.1239745867107 384.6731077222688 759.0569450760245 383.70339017404564L759.0569450760245 383.70339017404564Q751.6054312844147 380.2838598724165 747.3948156144984 380.2838598724165Q743.1841999445819 380.2838598724165 738.5652821490978 385.5407497391001Q733.9463643536137 390.7721207229356 733.9463643536137 395.0082552757L733.9463643536137 395.0082552757L733.9463643536137 435.55776012113756Q733.9463643536137 442.2692263101559 741.7551425050951 444.514888000778L741.7551425050951 444.514888000778Q745.1491539238763 445.4080489004573 748.1093443342418 445.8163510260249Q751.0695347446073 446.2246531515925 751.9371767614385 446.58191751146427Q752.7792998954218 446.93918187133596 752.7792998954218 447.9854560681031Q752.7792998954218 449.00621138202223 751.8861389957426 449.184843561958L751.8861389957426 449.184843561958L706.9473863004526 449.184843561958Q706.0542254007735 449.00621138202223 706.0542254007735 447.9344183024071L706.0542254007735 447.9344183024071Q706.0542254007735 446.30120980013646 710.2648410706898 445.765313260329L710.2648410706898 445.765313260329Q719.9364976700737 444.33625582084215 719.9364976700737 435.55776012113756L719.9364976700737 435.55776012113756L719.9364976700737 388.09263802389785Q719.9364976700737 384.3158433623971 715.8279575315491 382.8867859229103L715.8279575315491 382.8867859229103Q714.0161168493427 382.24881385171085 711.9746062215044 381.8660306089912Q709.9075767108181 381.4577284834235 708.6826703341152 381.10046412355183Q707.4832828402602 380.7431997636801 707.1515373632365 380.4114542866564Q706.8453107690608 380.10522769248064 706.8453107690608 379.0844723785615Q706.8453107690608 378.0381981817944 708.1978115600036 377.32366946205104L708.1978115600036 377.32366946205104L731.0627305917922 366.5547009002041Q732.1600425542554 366.0188043603966 732.4152313827351 366.0188043603966L732.4152313827351 366.0188043603966Q733.9463643536137 366.0188043603966 733.9463643536137 368.1623905196268L733.9463643536137 368.1623905196268L733.9463643536137 382.70815374297445Q733.9463643536137 383.7799468225895 734.4822608934213 383.7799468225895L734.4822608934213 383.7799468225895Q735.1967896131647 383.7799468225895 738.1569800235302 379.5693311526731L738.1569800235302 379.5693311526731Q746.680286894755 367.62649397981926 752.2434033556142 367.62649397981926L752.2434033556142 367.62649397981926Q755.3822259459156 367.62649397981926 761.88954107215 370.15286338176907Q768.3968561983845 372.65371390087097 768.3968561983845 374.36347905168554L768.3968561983845 374.36347905168554Q768.3968561983845 376.43050856237176 766.3298266876983 380.64112423228823Q764.2627971770121 384.8517399022046 762.1957676663258 384.8517399022046ZM775.1338412702509 408.86500866215226Q775.1338412702509 391.23146061419925 787.6380938657602 378.523056955906Q800.1423464612697 365.84017218046074 817.6483000949828 365.84017218046074Q835.154253728696 365.84017218046074 848.0668084497729 378.1657925960343Q860.97936317085 390.51693189445587 860.97936317085 408.63533871652044Q860.97936317085 426.75374553858506 848.7302994038204 439.1814414855505Q836.4812356367908 451.609137432516 818.0055644548545 451.609137432516Q799.5298932729181 451.609137432516 787.3318672715844 439.05384707131066Q775.1338412702509 426.4985567101053 775.1338412702509 408.86500866215226ZM797.4628637622319 431.9595976395726L797.4628637622319 431.9595976395726Q806.2668783447843 446.7605496914001 821.4250947564835 446.7605496914001L821.4250947564835 446.7605496914001Q833.1637808665536 446.7605496914001 839.4159071643084 437.3440819204961Q845.642514579215 427.9276141495921 845.642514579215 414.19845517737974Q845.642514579215 400.4692962051674 836.8895377623585 386.02560851321164Q828.1365609455019 371.5819208212559 813.3356088936744 371.5819208212559L813.3356088936744 371.5819208212559Q802.4900836832836 371.5819208212559 796.2634762683768 380.94735082646395Q790.0113499706222 390.33829971451996 790.0113499706222 404.7309496407798Q790.0113499706222 419.12359956703955 797.4628637622319 431.9595976395726ZM939.832711171103 420.935440249246L939.832711171103 420.935440249246L939.6540789911674 402.0004291760461Q939.6540789911674 390.4148563630639 937.6891250118729 385.7449008018839Q935.7241710325786 381.10046412355183 932.6619050908212 378.70168913584183Q929.5996391490638 376.32843303097985 924.4448248137721 376.32843303097985Q919.2900104784806 376.32843303097985 902.6006610959028 384.417918893789L902.6006610959028 384.417918893789Q900.3549994052805 385.7449008018839 900.2784427567367 386.91876941289087L900.2784427567367 386.91876941289087L900.2784427567367 435.20049576126587Q900.2784427567367 444.25969917229827 909.9756182389684 445.5866810803931L909.9756182389684 445.5866810803931Q914.1862339088848 446.2246531515925 914.1862339088848 447.60267282538337Q914.1862339088848 449.00621138202223 913.2930730092056 449.184843561958L913.2930730092056 449.184843561958L873.2794647035755 449.184843561958Q872.3863038038963 449.00621138202223 872.3863038038963 447.9344183024071L872.3863038038963 447.9344183024071Q872.3863038038963 446.2246531515925 876.5969194738127 445.5866810803931L876.5969194738127 445.5866810803931Q886.2685760731965 444.25969917229827 886.2685760731965 435.20049576126587L886.2685760731965 435.20049576126587L886.2685760731965 383.70339017404564Q886.2685760731965 379.9265955125448 882.160035934672 378.497538073058L882.160035934672 378.497538073058Q880.3481952524655 377.8595660018586 878.3066846246272 377.4512638762909Q876.239655113941 377.04296175072324 875.014748737238 376.68569739085154Q873.8153612433831 376.32843303097985 873.4836157663594 376.02220643680414Q873.1773891721837 375.71597984262837 873.1773891721837 374.66970564586126Q873.1773891721837 373.64895033194216 874.5298899631265 372.9344216121987L874.5298899631265 372.9344216121987L897.3948089949151 362.16545305035186Q898.4921209573781 361.6295565105443 898.747309785858 361.6295565105443L898.747309785858 361.6295565105443Q900.2784427567367 361.6295565105443 900.2784427567367 363.77314266977453L900.2784427567367 363.77314266977453L900.2784427567367 377.78300935331464Q900.5336315852164 378.67617025299387 900.9929714764801 378.67617025299387L900.9929714764801 378.67617025299387Q901.5288680162876 378.67617025299387 904.8463227865248 377.04296175072324L904.8463227865248 377.04296175072324Q912.5785442894622 373.1896104406785 920.3618035580956 369.6169668419616Q928.1705817095769 366.0188043603966 933.2998771620207 366.0188043603966L933.2998771620207 366.0188043603966Q954.0212100345791 366.0188043603966 954.0212100345791 403.7867509754046L954.0212100345791 403.7867509754046L953.2046057834438 429.99464366027837L953.2046057834438 435.20049576126587Q953.2046057834438 442.19266966161194 960.1967796837898 444.33625582084215L960.1967796837898 444.33625582084215Q963.1569700941553 445.33149225191335 965.9130094417369 445.73979437748096Q968.6435299064706 446.1225776202007 969.4856530404539 446.5053608629203Q970.3532950572852 446.862625222792 970.3532950572852 447.9344183024071Q970.3532950572852 449.00621138202223 969.434615274758 449.184843561958L969.434615274758 449.184843561958L926.2056277302827 449.184843561958Q925.3124668306034 449.00621138202223 925.3124668306034 447.9344183024071L925.3124668306034 447.9344183024071Q925.3124668306034 446.2246531515925 929.5230825005199 445.5866810803931L929.5230825005199 445.5866810803931Q939.1181824513596 444.25969917229827 939.1181824513596 434.4604481586746L939.1181824513596 434.4604481586746Q939.832711171103 429.99464366027837 939.832711171103 420.935440249246ZM1027.209366042581 380.1817843410246L1000.2103879894198 380.1817843410246Q999.6744914496123 380.1817843410246 999.6744914496123 380.9983885921599L999.6744914496123 380.9983885921599L999.6744914496123 430.53054020008585Q999.6744914496123 435.9150244810093 1002.0477475544742 438.9517715399187Q1004.4465225421843 442.01403748167616 1008.1212416722931 442.01403748167616Q1011.7959608024021 442.01403748167616 1014.5264812671358 440.7891311049732Q1017.2570017318694 439.5897436111182 1019.2729934768597 438.16068617163137Q1021.28898522185 436.70610984929664 1022.9221937241206 435.50672235544164Q1024.5298833435431 434.2818159787387 1025.7803086030942 434.2818159787387Q1027.030733862645 434.2818159787387 1027.030733862645 434.9197880499381L1027.030733862645 434.9197880499381Q1027.030733862645 437.06337420916833 1026.5969128542295 437.70134628036783L1026.5969128542295 437.70134628036783Q1015.8279442923827 451.609137432516 1005.8245422159752 451.609137432516Q995.8211401395675 451.609137432516 990.7428824528199 445.28045448621737Q985.6901436489202 438.9517715399187 985.6901436489202 430.17327584021416L985.6901436489202 430.17327584021416L985.6901436489202 380.1817843410246L978.953158577054 380.1817843410246Q976.452308057952 380.1817843410246 976.2991947608641 378.57409472160197Q976.1716003466242 376.96640510217935 976.8095724178238 376.5070652109157L976.8095724178238 376.5070652109157Q981.5560846275476 373.47031815200626 989.9007593188367 365.559464469133L989.9007593188367 365.559464469133Q990.7939202185158 364.5897469209098 992.3250531893946 362.5992740587675Q993.8561861602732 360.6343200794732 996.7653388049428 357.2147897778441Q999.6744914496123 353.82077835906296 1001.2056244204911 353.82077835906296Q1002.7367573913698 353.82077835906296 1002.7367573913698 355.0712036186139L1002.7367573913698 355.0712036186139Q1002.7367573913698 355.2498357985497 999.6744914496123 366.8354086115319L999.6744914496123 366.8354086115319Q999.6744914496123 368.44309823095455 1001.1035488890991 368.5196548794985L1001.1035488890991 368.5196548794985L1023.9939868037357 368.5196548794985Q1027.9494136451724 368.5196548794985 1027.9494136451724 379.64588780121704L1027.9494136451724 379.64588780121704Q1027.9494136451724 380.1817843410246 1027.209366042581 380.1817843410246L1027.209366042581 380.1817843410246ZM1102.9494103353807 401.89835364465415L1050.9164082083528 401.89835364465415Q1049.3852752374742 401.89835364465415 1049.3852752374742 408.4567065365846L1049.3852752374742 408.4567065365846Q1049.3852752374742 422.3644976887328 1057.6278743973712 431.78096545963683Q1065.895992440116 441.1974332305408 1078.1450562071457 441.1974332305408Q1090.3686010913275 441.1974332305408 1101.6734661929818 430.6070968486298L1101.6734661929818 430.6070968486298Q1101.8520983729177 430.42846466869395 1102.1328060842452 430.42846466869395L1102.1328060842452 430.42846466869395L1102.592145975509 430.42846466869395Q1103.1280425153166 430.42846466869395 1103.6129012894282 431.2961066855252Q1104.0977600635397 432.1382298195085 1104.5570999548033 432.4189375308363L1104.5570999548033 432.4189375308363Q1094.145395752828 445.0507845405856 1080.058972420744 449.8993722817014L1080.058972420744 449.8993722817014Q1075.2103846796283 451.609137432516 1069.1113716789614 451.609137432516Q1063.0123586782947 451.609137432516 1056.734713497692 448.2406448965828Q1050.4570683170891 444.8721523606497 1045.9657449358451 439.41111143118235L1045.9657449358451 439.41111143118235Q1036.4727205163972 428.004170798136 1036.4727205163972 411.0085948213824Q1036.4727205163972 394.01301884462885 1046.8333869526764 380.00315216108874Q1057.1940533889556 366.0188043603966 1075.3124602110202 366.0188043603966L1075.3124602110202 366.0188043603966Q1088.3270904634892 366.0188043603966 1096.5696896233862 377.62989605622676Q1104.837807666131 389.2665066349049 1104.837807666131 398.0450023346094L1104.837807666131 398.0450023346094Q1104.837807666131 401.89835364465415 1102.9494103353807 401.89835364465415L1102.9494103353807 401.89835364465415ZM1051.886125756576 392.2266970452704L1051.886125756576 393.29849012488546Q1051.886125756576 395.0082552757 1053.5193342588466 395.0082552757L1053.5193342588466 395.0082552757L1087.331854032418 395.0082552757Q1089.654072371584 395.0082552757 1089.654072371584 392.2266970452704L1089.654072371584 392.2266970452704Q1089.654072371584 385.7449008018839 1083.8868048479408 378.98239684716964Q1078.0940184414499 372.21989289245533 1071.1784011896477 372.21989289245533L1071.1784011896477 372.21989289245533Q1064.4414161177815 372.21989289245533 1058.9293374226181 378.3189058931222Q1053.4172587274547 384.417918893789 1051.886125756576 392.2266970452704L1051.886125756576 392.2266970452704ZM1185.7581851770706 420.935440249246L1185.7581851770706 420.935440249246L1185.5795529971347 402.0004291760461Q1185.5795529971347 390.4148563630639 1183.5890801349924 385.7449008018839Q1181.624126155698 381.10046412355183 1178.5618602139407 378.70168913584183Q1175.5251131550312 376.32843303097985 1170.3702988197394 376.32843303097985Q1165.2154844844479 376.32843303097985 1148.52613510187 384.417918893789L1148.52613510187 384.417918893789Q1146.2804734112478 385.7449008018839 1146.1783978798562 386.91876941289087L1146.1783978798562 386.91876941289087L1146.1783978798562 435.20049576126587Q1146.1783978798562 444.25969917229827 1155.8755733620878 445.5866810803931L1155.8755733620878 445.5866810803931Q1160.0861890320043 446.2246531515925 1160.0861890320043 447.60267282538337Q1160.0861890320043 449.00621138202223 1159.1930281323248 449.184843561958L1159.1930281323248 449.184843561958L1119.1794198266948 449.184843561958Q1118.2862589270158 449.00621138202223 1118.2862589270158 447.9344183024071L1118.2862589270158 447.9344183024071Q1118.2862589270158 446.2246531515925 1122.4968745969322 445.5866810803931L1122.4968745969322 445.5866810803931Q1132.1940500791638 444.25969917229827 1132.1940500791638 435.20049576126587L1132.1940500791638 435.20049576126587L1132.1940500791638 383.70339017404564Q1132.1940500791638 379.9265955125448 1128.0599910577914 378.497538073058L1128.0599910577914 378.497538073058Q1126.273669258433 377.8595660018586 1124.2066397477467 377.4512638762909Q1122.1396102370604 377.04296175072324 1120.9402227432054 376.68569739085154Q1119.7153163665025 376.32843303097985 1119.4090897723268 376.02220643680414Q1119.0773442953032 375.71597984262837 1119.0773442953032 374.66970564586126Q1119.0773442953032 373.64895033194216 1120.429845086246 372.9344216121987L1120.429845086246 372.9344216121987L1143.3202830008825 362.16545305035186Q1144.3920760804976 361.6295565105443 1144.6472649089774 361.6295565105443L1144.6472649089774 361.6295565105443Q1146.1783978798562 361.6295565105443 1146.1783978798562 363.77314266977453L1146.1783978798562 363.77314266977453L1146.1783978798562 377.78300935331464Q1146.4591055911837 378.67617025299387 1146.8929265995994 378.67617025299387L1146.8929265995994 378.67617025299387Q1147.428823139407 378.67617025299387 1150.771796792492 377.04296175072324L1150.771796792492 377.04296175072324Q1158.4784994125816 373.1896104406785 1166.287277564063 369.6169668419616Q1174.0960557155445 366.0188043603966 1179.19983228514 366.0188043603966L1179.19983228514 366.0188043603966Q1199.9211651576984 366.0188043603966 1199.9211651576984 403.7867509754046L1199.9211651576984 403.7867509754046L1199.1045609065632 429.99464366027837L1199.1045609065632 435.20049576126587Q1199.1045609065632 442.19266966161194 1206.1222536897571 444.33625582084215L1206.1222536897571 444.33625582084215Q1209.0824441001228 445.33149225191335 1211.8129645648564 445.73979437748096Q1214.54348502959 446.1225776202007 1215.4111270464214 446.5053608629203Q1216.2532501804046 446.862625222792 1216.2532501804046 447.9344183024071Q1216.2532501804046 449.00621138202223 1215.3600892807253 449.184843561958L1215.3600892807253 449.184843561958L1172.105582853402 449.184843561958Q1171.2124219537227 449.00621138202223 1171.2124219537227 447.9344183024071L1171.2124219537227 447.9344183024071Q1171.2124219537227 446.2246531515925 1175.4230376236392 445.5866810803931L1175.4230376236392 445.5866810803931Q1185.0181375744792 444.25969917229827 1185.0181375744792 434.4604481586746L1185.0181375744792 434.4604481586746Q1185.7581851770706 429.99464366027837 1185.7581851770706 420.935440249246ZM1279.6676740576308 369.74456125620145Q1283.6231008990676 371.1225809299923 1284.5162617987467 371.1225809299923Q1285.409422698426 371.1225809299923 1285.6390926440577 371.0970620471443Q1285.8687625896896 371.04602428144835 1286.2260269495612 369.9742312018333L1286.2260269495612 369.9742312018333L1286.2260269495612 323.6829777156005Q1286.2260269495612 319.90618305409976 1282.0919679281888 318.47712561461293L1282.0919679281888 318.47712561461293Q1280.3056461288302 317.8391535434135 1278.238616618144 317.4308514178458Q1276.1715871074575 317.0225492922782 1274.9721996136027 316.6652849324065Q1273.7472932368996 316.3080205725348 1273.441066642724 316.00179397835905Q1273.1348400485483 315.6955673841833 1273.1348400485483 314.6492931874162Q1273.1348400485483 313.62853787349707 1274.4873408394913 312.9140091537537L1274.4873408394913 312.9140091537537L1297.3522598712798 302.14504059190676Q1298.4240529508947 301.6091440520993 1298.7047606622227 301.6091440520993L1298.7047606622227 301.6091440520993Q1300.2358936331013 301.6091440520993 1300.2358936331013 303.75273021132944L1300.2358936331013 303.75273021132944L1300.2358936331013 431.5002577483091Q1300.669714641517 435.4556845897457 1302.4560364408753 437.16544974056023Q1304.267877123082 438.87521489137475 1308.2998606130627 438.87521489137475L1308.2998606130627 438.87521489137475L1313.5057127140499 438.51795053150306Q1314.0416092538576 438.51795053150306 1314.0416092538576 439.5387058454222Q1314.0416092538576 440.55946115934137 1312.6891084629146 441.1974332305408L1312.6891084629146 441.1974332305408L1288.828953000055 451.07324089270844Q1287.7571599204398 451.609137432516 1286.9915934350006 451.609137432516Q1286.2260269495612 451.609137432516 1286.2260269495612 449.3634757418939L1286.2260269495612 449.3634757418939L1286.2260269495612 441.1974332305408Q1286.2260269495612 440.30427233086164 1285.7922059411455 440.30427233086164L1285.7922059411455 440.30427233086164Q1285.1542338699462 440.30427233086164 1278.340692149536 444.33625582084215L1278.340692149536 444.33625582084215Q1257.4407270970416 456.7129140021117 1243.07359605363 448.01097495095104L1243.07359605363 448.01097495095104Q1231.5900987720397 441.01880105060496 1227.558115282059 425.86058463890583L1227.558115282059 425.86058463890583Q1225.6697179513085 418.76633520716786 1225.6697179513085 410.82996264144657Q1225.6697179513085 402.89359007572534 1228.9361349558499 395.033774158548Q1232.228070843239 387.1994771242186 1237.9698194840344 381.2790963034877L1237.9698194840344 381.2790963034877Q1250.6016664937833 368.34102269956264 1268.4648844873682 368.34102269956264L1268.4648844873682 368.34102269956264Q1275.7377660990421 368.34102269956264 1279.6676740576308 369.74456125620145ZM1239.2202447435852 408.2270365909528Q1239.2202447435852 421.82860114892526 1246.7483151837387 432.0106354052686Q1254.3019045067404 442.19266966161194 1267.750355767625 442.19266966161194L1267.750355767625 442.19266966161194Q1273.6707365883558 442.19266966161194 1279.9483817689584 439.2835170169425Q1286.2260269495612 436.34884548942495 1286.2260269495612 434.8177125185463L1286.2260269495612 434.8177125185463L1286.2260269495612 388.52645903231354Q1286.2260269495612 386.8422127643469 1283.9038086103951 384.4944755423329L1283.9038086103951 384.4944755423329Q1276.7074836472652 374.6441867630133 1264.8412031229554 374.6441867630133Q1252.9494037157974 374.6441867630133 1246.084824229691 384.6475888394208Q1239.2202447435852 394.6254720329804 1239.2202447435852 408.2270365909528Z " fill="#b88746" transform="matrix(0.6658845177929146,0,0,0.6658845177929146,0,49.221803787817095)"/></g></svg>